<svg width="1200" height="750" viewBox="0 0 1200 750" fill="none" xmlns="http://www.w3.org/2000/svg">
  <rect width="1200" height="750" rx="48" fill="url(#bg)"/>
  <circle cx="990" cy="90" r="240" fill="#1E88E5" opacity="0.24"/>
  <circle cx="170" cy="670" r="280" fill="#00D5FF" opacity="0.16"/>
  <path d="M720 182C786 128 884 135 942 196C1000 257 1002 354 947 417" stroke="#7DD3FC" stroke-width="18" stroke-linecap="round" opacity="0.7"/>
  <path d="M684 252C726 219 787 224 824 262C862 300 864 361 829 400" stroke="#7DD3FC" stroke-width="18" stroke-linecap="round" opacity="0.9"/>
  <path d="M642 327C661 313 688 316 704 333C721 350 722 376 707 394" stroke="#67E8F9" stroke-width="18" stroke-linecap="round"/>
  <path d="M350 438L575 314V552L350 438Z" fill="url(#speaker)"/>
  <path d="M237 372H360V503H237C201 503 172 474 172 438C172 402 201 372 237 372Z" fill="#E0F2FE"/>
  <path d="M568 314L633 276C662 259 699 280 699 314V552C699 586 662 607 633 590L568 552V314Z" fill="#38BDF8"/>
  <rect x="198" y="415" width="124" height="46" rx="23" fill="#0284C7"/>
  <circle cx="874" cy="524" r="62" fill="#E0F2FE"/>
  <path d="M847 526L870 549L907 498" stroke="#0EA5E9" stroke-width="16" stroke-linecap="round" stroke-linejoin="round"/>
  <rect x="82" y="74" width="312" height="82" rx="24" fill="#E0F2FE" opacity="0.95"/>
  <text x="122" y="128" fill="#005BAA" font-family="Arial, Helvetica, sans-serif" font-size="42" font-weight="700">MobiFone</text>
  <text x="82" y="648" fill="#E0F2FE" font-family="Arial, Helvetica, sans-serif" font-size="54" font-weight="800">Truyền thanh thông minh</text>
  <text x="84" y="704" fill="#BAE6FD" font-family="Arial, Helvetica, sans-serif" font-size="28" font-weight="500">IP • IoT • Cloud • AI Text-to-speech</text>
  <defs>
    <linearGradient id="bg" x1="104" y1="50" x2="1026" y2="740" gradientUnits="userSpaceOnUse">
      <stop stop-color="#1D6AB3"/>
      <stop offset="0.52" stop-color="#0B3B73"/>
      <stop offset="1" stop-color="#031A35"/>
    </linearGradient>
    <linearGradient id="speaker" x1="350" y1="314" x2="575" y2="552" gradientUnits="userSpaceOnUse">
      <stop stop-color="#F8FAFC"/>
      <stop offset="1" stop-color="#93C5FD"/>
    </linearGradient>
  </defs>
</svg>
